<mxfile host="app.diagrams.net" modified="2023-11-12T07:21:57.762Z" agent="Mozilla/5.0 (Windows NT 10.0; Win64; x64) AppleWebKit/537.36 (KHTML, like Gecko) Chrome/119.0.0.0 Safari/537.36" etag="cNmJZ6DtyPwsoEsBXv-z" version="22.1.0" type="github">
  <diagram name="Page-1" id="edf60f1a-56cd-e834-aa8a-f176f3a09ee4">
    <mxGraphModel dx="1147" dy="626" grid="1" gridSize="10" guides="1" tooltips="1" connect="1" arrows="1" fold="1" page="1" pageScale="1" pageWidth="1100" pageHeight="850" background="none" math="0" shadow="0">
      <root>
        <mxCell id="0" />
        <mxCell id="1" parent="0" />
        <mxCell id="t5zqVlOhkbVF1g-prRR_-6" style="edgeStyle=orthogonalEdgeStyle;rounded=0;orthogonalLoop=1;jettySize=auto;html=1;exitX=1;exitY=0.75;exitDx=0;exitDy=0;" parent="1" source="t5zqVlOhkbVF1g-prRR_-1" target="t5zqVlOhkbVF1g-prRR_-4" edge="1">
          <mxGeometry relative="1" as="geometry" />
        </mxCell>
        <mxCell id="t5zqVlOhkbVF1g-prRR_-7" value="&lt;font style=&quot;font-size: 14px;&quot;&gt;Clicks on app&lt;/font&gt;" style="edgeLabel;html=1;align=center;verticalAlign=middle;resizable=0;points=[];" parent="t5zqVlOhkbVF1g-prRR_-6" vertex="1" connectable="0">
          <mxGeometry x="-0.0506" y="1" relative="1" as="geometry">
            <mxPoint as="offset" />
          </mxGeometry>
        </mxCell>
        <mxCell id="t5zqVlOhkbVF1g-prRR_-1" value="&lt;br&gt;&lt;br&gt;&lt;b&gt;&lt;font color=&quot;#ff8585&quot;&gt;jaafar&lt;/font&gt;&lt;/b&gt;" style="shape=actor;whiteSpace=wrap;html=1;" parent="1" vertex="1">
          <mxGeometry x="100" y="100" width="40" height="60" as="geometry" />
        </mxCell>
        <mxCell id="t5zqVlOhkbVF1g-prRR_-2" value="&lt;b&gt;&lt;font style=&quot;font-size: 24px;&quot; color=&quot;#66b2ff&quot;&gt;FOOD APP PLATFORM&lt;/font&gt;&lt;/b&gt;" style="text;html=1;strokeColor=none;fillColor=none;align=center;verticalAlign=middle;whiteSpace=wrap;rounded=0;" parent="1" vertex="1">
          <mxGeometry x="40" y="10" width="360" height="50" as="geometry" />
        </mxCell>
        <mxCell id="t5zqVlOhkbVF1g-prRR_-11" style="edgeStyle=orthogonalEdgeStyle;rounded=0;orthogonalLoop=1;jettySize=auto;html=1;exitX=1;exitY=0.5;exitDx=0;exitDy=0;exitPerimeter=0;" parent="1" source="t5zqVlOhkbVF1g-prRR_-4" target="t5zqVlOhkbVF1g-prRR_-9" edge="1">
          <mxGeometry relative="1" as="geometry" />
        </mxCell>
        <mxCell id="t5zqVlOhkbVF1g-prRR_-4" value="" style="shape=mxgraph.signs.tech.cell_phone;html=1;pointerEvents=1;verticalLabelPosition=bottom;verticalAlign=top;align=center;sketch=0;fillColor=#76608a;strokeColor=#432D57;fontColor=#ffffff;" parent="1" vertex="1">
          <mxGeometry x="240" y="100" width="30" height="60" as="geometry" />
        </mxCell>
        <mxCell id="t5zqVlOhkbVF1g-prRR_-9" value="App opens&lt;br&gt;&lt;br&gt;Welcome Screen" style="whiteSpace=wrap;html=1;aspect=fixed;glass=0;rounded=0;shadow=0;" parent="1" vertex="1">
          <mxGeometry x="241" y="210" width="98" height="160" as="geometry" />
        </mxCell>
        <mxCell id="xcqI-rlVTfexZCaktovv-5" value="" style="verticalLabelPosition=bottom;verticalAlign=top;html=1;shape=mxgraph.flowchart.on-page_reference;" vertex="1" parent="1">
          <mxGeometry x="264" y="340" width="10" height="10" as="geometry" />
        </mxCell>
        <mxCell id="xcqI-rlVTfexZCaktovv-6" value="" style="verticalLabelPosition=bottom;verticalAlign=top;html=1;shape=mxgraph.flowchart.on-page_reference;" vertex="1" parent="1">
          <mxGeometry x="284" y="340" width="10" height="10" as="geometry" />
        </mxCell>
        <mxCell id="xcqI-rlVTfexZCaktovv-7" value="" style="verticalLabelPosition=bottom;verticalAlign=top;html=1;shape=mxgraph.flowchart.on-page_reference;" vertex="1" parent="1">
          <mxGeometry x="304" y="340" width="10" height="10" as="geometry" />
        </mxCell>
        <mxCell id="xcqI-rlVTfexZCaktovv-10" value="&lt;br&gt;last info page" style="whiteSpace=wrap;html=1;aspect=fixed;glass=0;rounded=0;shadow=0;" vertex="1" parent="1">
          <mxGeometry x="480" y="210" width="98" height="160" as="geometry" />
        </mxCell>
        <mxCell id="xcqI-rlVTfexZCaktovv-1" value="Continue" style="rounded=1;whiteSpace=wrap;html=1;" vertex="1" parent="1">
          <mxGeometry x="483.5" y="330" width="91" height="30" as="geometry" />
        </mxCell>
        <mxCell id="xcqI-rlVTfexZCaktovv-9" value="Swipes for more info" style="shape=singleArrow;whiteSpace=wrap;html=1;" vertex="1" parent="1">
          <mxGeometry x="350" y="245" width="110" height="115" as="geometry" />
        </mxCell>
        <mxCell id="xcqI-rlVTfexZCaktovv-21" value="&lt;br&gt;Sign-in&amp;nbsp;&lt;br&gt;Google&lt;br&gt;Phone number&lt;br&gt;apple account" style="whiteSpace=wrap;html=1;aspect=fixed;glass=0;rounded=0;shadow=0;" vertex="1" parent="1">
          <mxGeometry x="620" y="210" width="98" height="160" as="geometry" />
        </mxCell>
      </root>
    </mxGraphModel>
  </diagram>
</mxfile>
